<svg width="281" height="62" viewBox="0 0 281 62" fill="none" xmlns="http://www.w3.org/2000/svg">
<circle cx="108.366" cy="31" r="30.6677" fill="#C7C8CB"/>
<circle cx="107.837" cy="30.4713" r="15.3339" fill="white"/>
<path d="M152.781 0.348813L152.781 61.2678L172.879 61.2678L172.879 41.0135L193.133 61.2678L213.388 61.2678L152.781 0.348813Z" fill="#C7C8CB"/>
<path d="M192.977 0.872789L212.573 0.8728L212.573 19.7543L192.977 0.872789Z" fill="#04B7AC"/>
<path d="M278.561 54.9642C273.963 58.6357 268.407 60.9072 262.554 61.5076C256.701 62.1081 250.798 61.0121 245.551 58.3505C240.304 55.6889 235.933 51.574 232.96 46.4966C229.986 41.4193 228.537 35.5938 228.783 29.7152C229.03 23.8366 230.962 18.153 234.35 13.3424C237.737 8.53174 242.437 4.79718 247.889 2.58418C253.341 0.371178 259.314 -0.226837 265.096 0.86147C270.879 1.94978 276.226 4.67846 280.5 8.72202L269.962 19.861C267.825 17.8392 265.151 16.4749 262.26 15.9307C259.369 15.3866 256.382 15.6856 253.657 16.7921C250.931 17.8986 248.581 19.7659 246.887 22.1712C245.193 24.5765 244.227 27.4183 244.104 30.3576C243.98 33.2969 244.705 36.2096 246.192 38.7483C247.678 41.287 249.864 43.3444 252.487 44.6753C255.111 46.0061 258.062 46.554 260.989 46.2538C263.915 45.9536 266.694 44.8179 268.993 42.9821L278.561 54.9642Z" fill="#C7C8CB"/>
<path d="M266.181 25.2823L266.181 37.7573H253.706L266.181 25.2823Z" fill="#04B7AC"/>
<path d="M62.893 0.332275H0.5V61.6677H22.7077L62.893 21.4824C62.9395 21.4359 62.9123 21.1106 62.893 20.9537V0.332275Z" fill="#C7C8CB"/>
<path d="M28.5927 55.7827C24.8246 52.0146 22.7077 46.904 22.7077 41.5751C22.7077 36.2462 24.8246 31.1355 28.5927 27.3674C32.3608 23.5993 37.4714 21.4824 42.8003 21.4824C48.1292 21.4824 53.2399 23.5993 57.008 27.3674L48.4834 35.892C46.9761 34.3848 44.9319 33.538 42.8003 33.538C40.6688 33.538 38.6245 34.3848 37.1173 35.892C35.61 37.3993 34.7633 39.4435 34.7633 41.5751C34.7633 43.7066 35.61 45.7509 37.1173 47.2581L28.5927 55.7827Z" fill="white"/>
<path d="M57.008 55.7827C53.2399 59.5508 48.1292 61.6677 42.8003 61.6677C37.4714 61.6677 32.3608 59.5508 28.5927 55.7827L37.1173 47.2581C38.6245 48.7654 40.6688 49.6121 42.8003 49.6121C44.9319 49.6121 46.9761 48.7654 48.4834 47.2581L57.008 55.7827Z" fill="#04B7AC"/>
</svg>
